<?xml version="1.0" encoding="utf-8"?>
<!-- Generator: Adobe Illustrator 19.1.0, SVG Export Plug-In . SVG Version: 6.00 Build 0)  -->
<svg version="1.1" id="Layer_1" xmlns="http://www.w3.org/2000/svg" xmlns:xlink="http://www.w3.org/1999/xlink" x="0px" y="0px"
	 viewBox="0 0 255.8 124.1" style="enable-background:new 0 0 255.8 124.1;" xml:space="preserve">
<style type="text/css">
	.st0{fill:#FFFFFF;}
	.st1{fill:none;stroke:#FFFFFF;stroke-miterlimit:10;}
</style>
<g>
	<g>
		<g>
			<path class="st0" d="M83,5.9c-0.1-2.4,0.6-3.1-3.5-3.1V1.1c1.8,0,4.1,0,6.3,0.1c2.2,0,4.5,0,6.3-0.1v1.6c-3.8,0-3.5,0.7-3.5,3.1
				v14c-0.1,4.7,1.6,7.3,6.6,7.3c4.9,0,7.8-2.6,7.8-7.5V5.9c0-2.9-0.2-3.1-4-3.1V1.1c1.6,0,3.3,0,4.9,0.1c1.6,0,3.2,0,4.8-0.1v1.6
				c-3.5,0-3.5,0.5-3.5,3.1v13.9c0,6.6-4.4,8.9-10.5,8.9c-7.3,0-11.8-1.2-11.8-9.1V5.9z"/>
		</g>
		<g>
			<path class="st0" d="M114.9,12.2c2.2-1.5,3.4-2.7,6.4-2.7c4.2,0,5.5,2.2,5.5,6v8.1c0,2.4-0.4,3.3,2.8,3.3v1.5
				c-1.8,0-3.6,0-5.4-0.1c-1.8,0-3.6,0-4.9,0.1v-1.5c2.7,0,2.3-1.2,2.3-3.3v-7.5c0-2.2-0.5-3.9-3.1-3.9c-2.7,0-3.4,2.2-3.4,4.4v6.9
				c0,2.1-0.4,3.3,2.3,3.3v1.5c-1.3,0-3.1,0-4.9-0.1c-1.8,0-3.6,0-5.4,0.1v-1.5c3.2,0,2.7-0.9,2.7-3.3v-9c0-2.4,0.4-3.3-2.7-3.3V9.8
				c1.3,0,2.6,0,3.9,0.1c1.3,0,2.6,0,3.9-0.1V12.2z"/>
		</g>
		<g>
			<path class="st0" d="M136.4,23.6c0,2.3-0.4,3.2,2.8,3.2v1.5c-1.8,0-3.6,0-5.4-0.1c-1.8,0-3.6,0-5.4,0.1v-1.5
				c3.2,0,2.8-0.9,2.8-3.2v-9.5c0-1.8,0.4-2.7-2.8-2.7V9.8h8.1V23.6z M131.2,3.2c0-1.8,0.9-3,2.7-3c1.8,0,2.7,1.3,2.7,3
				c0,1.8-0.9,3-2.7,3C132,6.2,131.2,4.9,131.2,3.2z"/>
		</g>
		<g>
			<path class="st0" d="M159.2,11.2c-2,0-2.7,1-3.3,2.6l-5.5,14.6c-0.6,0-1.2,0-1.8-0.1c-0.6,0-1.2,0-1.8,0.1l-5.4-14.6
				c-0.5-1.8-1.1-2.4-3.1-2.6V9.8c1.8,0,3.6,0,5.4,0.1c1.8,0,3.6,0,5.4-0.1v1.4c-1.4,0.1-2.1,0.4-2.3,1.3c-0.1,0.3,0,0.6,0.2,1.3
				l3.6,9.9l2.9-10.4c0.1-0.5,0.2-0.8,0.2-1.1c-0.1-0.7-0.9-1-2.3-1V9.8c1.3,0,2.6,0,3.9,0.1c1.3,0,2.6,0,3.8-0.1V11.2z"/>
		</g>
		<g>
			<path class="st0" d="M164.5,19.5c0,2.6-0.4,7.6,3.5,7.6c2.1,0,3-0.9,3.5-3.2c0.2-0.6,0.1-1,0.6-1.1h2.5c0.6,0,0.5,0.6,0.4,1.1
				c-0.3,3.8-4,4.8-7,4.8c-7.3,0-9.2-2.9-9.2-9.8c0-7.1,2.5-9.5,8.9-9.5c6.9,0,8.3,3.3,8,10.1H164.5z M170.4,17.7
				c-0.1-3.7,0.3-6.7-3-6.7c-3.1,0-2.8,3.2-2.9,6.7H170.4z"/>
		</g>
		<g>
			<path class="st0" d="M184.2,12.1c1.1-1.5,2.5-2.6,4.5-2.6c2.2,0,3.7,1.2,3.7,3.5c0,1.6-0.1,2.3-2,2.3c-1.1,0-2-0.1-2-1.4
				c0-1-0.3-1.9-1.5-1.9c-2.1,0-2.6,2.4-2.6,4.8v6.8c0,2.7-0.4,3.3,3.2,3.3v1.5c-2.2,0-4,0-5.9-0.1c-1.8,0-3.6,0-5.4,0.1v-1.5
				c3.2,0,2.7-0.9,2.7-3.3v-9c0-2.4,0.4-3.3-2.7-3.3V9.8c1.7,0,3.5,0,5.2,0.1c0.9,0,1.8,0,2.6-0.1V12.1z"/>
		</g>
		<g>
			<path class="st0" d="M208.2,15.2h-2.4c0-2.5-0.7-4.2-3.5-4.2c-1.7,0-3.1,0.7-3.1,2.6c0,4.8,9.9,1.3,9.9,9.2
				c0,3.3-2.3,5.9-7.5,5.9c-2.5,0-5.6-0.3-7.3-0.7v-5.4h2.6l0.1,1.6c0.2,1.9,1.7,3,3.5,3c2.2,0,3.6-0.8,3.6-3.1c0-2.5-3.8-2.9-6-3.6
				c-2.3-0.7-3.9-2.4-3.9-4.9c0-5.1,4-6.2,8.3-6.2c1.9,0,3.9,0.2,5.7,0.8V15.2z"/>
		</g>
		<g>
			<path class="st0" d="M218.8,23.6c0,2.3-0.4,3.2,2.8,3.2v1.5c-1.8,0-3.6,0-5.4-0.1c-1.8,0-3.6,0-5.4,0.1v-1.5
				c3.2,0,2.8-0.9,2.8-3.2v-9.5c0-1.8,0.4-2.7-2.8-2.7V9.8h8.1V23.6z M213.5,3.2c0-1.8,0.9-3,2.7-3c1.8,0,2.7,1.3,2.7,3
				c0,1.8-0.9,3-2.7,3C214.4,6.2,213.5,4.9,213.5,3.2z"/>
		</g>
		<g>
			<path class="st0" d="M224.1,11.7h-2.6V9.8h2.6V4.6l5.3-1.7v7h3.8v1.8h-3.8v9.8c0,2-0.3,5.3,2.6,5.3c0.5,0,1.1,0,1.6-0.3v1.5
				c-1.5,0.4-3,0.8-4.5,0.8c-3.5,0-4.9-1.3-4.9-4.9V11.7z"/>
		</g>
		<g>
			<path class="st0" d="M237.5,13.8c-0.9-2.2-0.7-2.3-3.1-2.6V9.8c1.8,0,3.6,0,5.4,0.1c1.8,0,3.6,0,5.4-0.1v1.4l-0.7,0.1
				c-0.5,0.1-1.5,0.2-1.6,0.9c-0.1,0.5,0.1,1.1,0.3,1.6l3.6,9.9l2.9-9.9c0.2-0.6,0.3-1,0.4-1.5c0.2-1.2-1.6-1-2.4-1.1V9.8
				c1.3,0,2.6,0,3.9,0.1c1.3,0,2.6,0,3.8-0.1v1.4c-1.1,0.4-2.1-0.7-3.5,3.3L245.2,32c-0.8,2.2-3,6.1-7.1,6.1c-1.5,0-2.9-1.1-2.9-2.7
				c0-1.2,0.8-2,1.8-2.1c1.8-0.2,2,1.9,3.5,1.8c1.7-0.2,2.7-2.5,3.2-3.9l1.1-2.9H243L237.5,13.8z"/>
		</g>
		<g>
			<path class="st0" d="M83.3,41.2c-0.1-2.4,0.5-3.2-3.5-3.2v-1.6c1.8,0,4.1,0,6.3,0.1c2.2,0,4.5,0,6.3-0.1V38
				c-3.8,0-3.5,0.7-3.5,3.2v7.3h10.8v-7.3c-0.1-2.4,0.5-3.2-3.5-3.2v-1.6c1.8,0,4.1,0,6.3,0.1c2.2,0,4.5,0,6.3-0.1V38
				c-3.8,0-3.5,0.7-3.5,3.2v17.7c0,2.5-0.4,3.2,3.5,3.2v1.6c-1.8,0-4.1,0-6.3-0.1c-2.2,0-4.5,0-6.3,0.1V62c4,0,3.4-0.8,3.5-3.2v-8.5
				H89v8.5c0,2.5-0.4,3.2,3.5,3.2v1.6c-1.8,0-4.1,0-6.3-0.1c-2.2,0-4.5,0-6.3,0.1V62c4,0,3.4-0.8,3.5-3.2V41.2z"/>
		</g>
		<g>
			<path class="st0" d="M128.3,54.7c0,6.7-3,9.2-9.3,9.2c-6.3,0-9.3-2.5-9.3-9.2c0-7,2.4-10.1,9.3-10.1
				C125.9,44.7,128.3,47.8,128.3,54.7z M115.5,53.9c0,2.6-0.5,8.5,3.6,8.5c4,0,3.6-5.9,3.6-8.5c0-2.6,0.5-7.7-3.6-7.7
				C115,46.3,115.5,51.3,115.5,53.9z"/>
		</g>
		<g>
			<path class="st0" d="M143.8,50.4h-2.4c0-2.5-0.7-4.2-3.5-4.2c-1.7,0-3.1,0.7-3.1,2.6c0,4.8,9.9,1.3,9.9,9.2
				c0,3.3-2.3,5.9-7.5,5.9c-2.5,0-5.6-0.3-7.3-0.7v-5.4h2.6l0.1,1.6c0.2,1.9,1.7,3,3.5,3c2.2,0,3.7-0.8,3.7-3.1c0-2.5-3.8-2.9-6-3.6
				c-2.3-0.7-3.9-2.4-3.9-4.9c0-5.1,4-6.2,8.3-6.2c1.9,0,3.8,0.2,5.7,0.8V50.4z"/>
		</g>
		<g>
			<path class="st0" d="M153.8,47.1c1.7-1.8,3.6-2.4,6-2.4c5.7,0,7.2,4.4,7.2,9.4c0,5.2-1.5,9.8-7.5,9.8c-2.3,0-3.5-0.4-5.3-1.8v6.4
				c0,2.7-0.4,3.3,3.3,3.3v1.5c-2.3,0-4.1,0-5.9-0.1c-1.8,0-3.6,0-5.7,0.1v-1.5c3.5,0,3-0.7,3-3.3V49.7c0-2.6,0.4-3.3-3-3.3V45
				c1.7,0,3.4,0,5.1,0.1c0.9,0,1.9,0,2.8-0.1V47.1z M161.3,52.8c0-2.7-0.3-6.1-3.6-6.1c-3.6,0-3.6,4.6-3.6,7.7c0,3.1,0,7.7,3.6,7.7
				c3.3,0,3.6-3.5,3.6-6.1v-1.6V52.8z"/>
		</g>
		<g>
			<path class="st0" d="M176,58.9c0,2.3-0.4,3.2,2.8,3.2v1.5c-1.8,0-3.6,0-5.4-0.1c-1.8,0-3.6,0-5.4,0.1v-1.5c3.2,0,2.8-0.9,2.8-3.2
				v-9.5c0-1.8,0.4-2.7-2.8-2.7v-1.5h8V58.9z M170.8,38.4c0-1.8,0.9-3,2.7-3c1.8,0,2.7,1.3,2.7,3c0,1.8-0.9,3-2.7,3
				C171.6,41.4,170.8,40.2,170.8,38.4z"/>
		</g>
		<g>
			<path class="st0" d="M182.1,46.9h-2.6v-1.8h2.6v-5.2l5.3-1.7v6.9h3.9v1.8h-3.9v9.8c0,2-0.3,5.3,2.6,5.3c0.5,0,1.1,0,1.7-0.3v1.5
				c-1.5,0.4-3,0.8-4.5,0.8c-3.5,0-5-1.3-5-4.9V46.9z"/>
		</g>
		<g>
			<path class="st0" d="M203.8,61.8c-2.1,1.4-3.5,2.2-6,2.2c-3.5,0-5.2-2.1-5.2-5.5c0-3.1,1.7-5,4.9-5.3c1-0.1,1.9-0.2,2.9-0.2h3.2
				c0-2.4,0.9-6.7-2.6-6.7c-1.5,0-2.6,0.6-2.7,3.1c0.1,0.9-0.2,1.2-0.8,1.2h-2.7c-0.5,0.1-0.9-0.2-0.8-1.2c-0.3-3.5,3.5-4.7,7-4.7
				c5.7,0.3,7.8,0.8,7.8,6v8.1c0,3.1-0.6,3.3,2.8,3.3v1.5c-1.3,0-2.6,0-3.9-0.1c-1.3,0-2.6,0-3.9,0.1V61.8z M203.6,54.5h-1.5
				c-2,0-3.3,0.4-3.8,2.6c-0.3,2-0.2,4.4,2.4,4.4c2.1,0,2.9-1.4,2.9-3.4V54.5z"/>
		</g>
		<g>
			<path class="st0" d="M221.6,58.8c0,2.4-0.4,3.3,2.8,3.3v1.5c-1.8,0-3.6,0-5.4-0.1c-1.8,0-3.6,0-5.4,0.1v-1.5
				c3.2,0,2.8-0.9,2.8-3.3V39c0-2.4,0.4-3.3-2.8-3.3v-1.5h8V58.8z"/>
		</g>
	</g>
	<path class="st0" d="M64.2,32l-0.3-0.3l-9.1-9.1V9.2H41.2l-8.9-8.9L32,0l-0.3,0.3l-8.9,8.9H9.4v13.4l-9,9L0,32l0.3,0.3l9,9V55h13.3
		l9.1,9.1l0.3,0.3l0.3-0.3l9.1-9.1h13.3V41.5l9.1-9.1L64.2,32z M53.2,23.2l-8.5,8.5L44.4,32l0.3,0.3l8.7,8.7H40.8v12.3L32.4,45
		l-0.3-0.3L31.7,45l-8.3,8.3V41H10.8l8.7-8.7l0.3-0.3l-0.3-0.3L11,23.2h12.4v-12l8.3,8.3l0.3,0.3l0.3-0.3l8.4-8.4v12.2H53.2z"/>
</g>
<g>
	<path class="st0" d="M82.2,103.1c-0.5,0-0.9-0.1-1.2-0.2s-0.7-0.4-1-0.7l0.9-0.9c0.2,0.2,0.4,0.3,0.6,0.4c0.2,0.1,0.4,0.1,0.8,0.1
		c0.5,0,0.9-0.2,1.2-0.5s0.4-0.8,0.4-1.4v-6.2h1.4v6.3c0,0.9-0.3,1.7-0.9,2.2C83.8,102.8,83,103.1,82.2,103.1z"/>
	<path class="st0" d="M91.8,102.3c-0.2,0.2-0.5,0.4-0.8,0.6s-0.7,0.2-1.1,0.2c-0.4,0-0.8-0.1-1.1-0.2s-0.6-0.3-0.9-0.6
		c-0.3-0.3-0.5-0.6-0.6-1c-0.1-0.4-0.2-0.9-0.2-1.5c0-0.6,0.1-1.1,0.2-1.5c0.1-0.4,0.3-0.8,0.6-1c0.3-0.3,0.6-0.5,0.9-0.6
		s0.7-0.2,1.1-0.2c0.4,0,0.8,0.1,1.1,0.2c0.3,0.1,0.6,0.3,0.9,0.6c0.3,0.3,0.5,0.6,0.6,1c0.1,0.4,0.2,0.9,0.2,1.5
		c0,0.6-0.1,1.1-0.2,1.5C92.3,101.6,92.1,102,91.8,102.3z M90.8,97.9c-0.3-0.3-0.6-0.4-1-0.4c-0.4,0-0.7,0.1-0.9,0.3
		c-0.2,0.2-0.4,0.5-0.4,0.8c-0.1,0.3-0.1,0.7-0.1,1.1c0,0.5,0,0.8,0.1,1.1s0.2,0.5,0.4,0.8c0.2,0.2,0.5,0.3,0.9,0.3
		c0.4,0,0.7-0.1,0.9-0.3s0.4-0.5,0.4-0.8c0.1-0.3,0.1-0.7,0.1-1.1c0-0.5,0-0.8-0.1-1.1S91,98.1,90.8,97.9z"/>
	<path class="st0" d="M94.3,95.1v-1.4h1.4v1.4H94.3z M94.3,103v-6.6h1.3v6.6H94.3z"/>
	<path class="st0" d="M101.8,103v-4c0-0.5-0.1-0.9-0.4-1.1c-0.2-0.2-0.6-0.4-1-0.4s-0.7,0.1-1,0.4c-0.3,0.2-0.4,0.6-0.4,1.1v4h-1.3
		v-6.6h1.3v0.7c0.5-0.5,1-0.7,1.8-0.7c0.3,0,0.6,0,0.9,0.1c0.3,0.1,0.5,0.3,0.7,0.5c0.2,0.2,0.4,0.5,0.5,0.8
		c0.1,0.3,0.1,0.7,0.1,1.1v4.2H101.8z"/>
	<path class="st0" d="M107.1,103c-0.6,0-1-0.2-1.3-0.5c-0.3-0.4-0.5-0.8-0.5-1.3v-3.6h-0.8v-1h0.8v-2h1.3v2h1.3v1h-1.3v3.6
		c0,0.5,0.2,0.8,0.7,0.8h0.5v1.1H107.1z"/>
	<path class="st0" d="M115.9,103.1c-1,0-1.7-0.3-2.2-0.8c-0.5-0.5-0.9-1-0.9-1.5c-0.1-0.5-0.1-1.3-0.1-2.4c0-1.1,0-1.9,0.1-2.4
		c0.1-0.5,0.4-1,0.9-1.5c0.5-0.5,1.3-0.8,2.2-0.8c0.9,0,1.6,0.2,2.2,0.7s1,1.2,1.1,2.1h-1.4c-0.1-0.5-0.3-0.9-0.6-1.2
		c-0.3-0.3-0.7-0.4-1.2-0.4c-0.6,0-1,0.2-1.3,0.5s-0.5,0.7-0.5,1c-0.1,0.4-0.1,1-0.1,1.9c0,0.9,0,1.6,0.1,2s0.2,0.7,0.5,1
		c0.3,0.3,0.7,0.5,1.3,0.5c0.5,0,0.9-0.1,1.2-0.4s0.5-0.7,0.7-1.2h1.4c-0.2,0.9-0.5,1.6-1.1,2.1
		C117.5,102.8,116.7,103.1,115.9,103.1z"/>
	<path class="st0" d="M125.3,102.3c-0.2,0.2-0.5,0.4-0.8,0.6s-0.7,0.2-1.1,0.2c-0.4,0-0.8-0.1-1.1-0.2s-0.6-0.3-0.9-0.6
		c-0.3-0.3-0.5-0.6-0.6-1c-0.1-0.4-0.2-0.9-0.2-1.5c0-0.6,0.1-1.1,0.2-1.5c0.1-0.4,0.3-0.8,0.6-1c0.3-0.3,0.6-0.5,0.9-0.6
		s0.7-0.2,1.1-0.2c0.4,0,0.8,0.1,1.1,0.2c0.3,0.1,0.6,0.3,0.9,0.6c0.3,0.3,0.5,0.6,0.6,1c0.1,0.4,0.2,0.9,0.2,1.5
		c0,0.6-0.1,1.1-0.2,1.5C125.8,101.6,125.6,102,125.3,102.3z M124.3,97.9c-0.3-0.3-0.6-0.4-1-0.4c-0.4,0-0.7,0.1-0.9,0.3
		c-0.2,0.2-0.4,0.5-0.4,0.8c-0.1,0.3-0.1,0.7-0.1,1.1c0,0.5,0,0.8,0.1,1.1s0.2,0.5,0.4,0.8c0.2,0.2,0.5,0.3,0.9,0.3
		c0.4,0,0.7-0.1,0.9-0.3s0.4-0.5,0.4-0.8c0.1-0.3,0.1-0.7,0.1-1.1c0-0.5,0-0.8-0.1-1.1S124.5,98.1,124.3,97.9z"/>
	<path class="st0" d="M135.9,103v-4c0-0.5-0.1-0.9-0.4-1.1s-0.6-0.4-1-0.4c-0.4,0-0.7,0.1-1,0.4c-0.3,0.2-0.4,0.6-0.4,1v4.1h-1.3v-4
		c0-0.5-0.1-0.9-0.4-1.1s-0.6-0.4-1-0.4c-0.4,0-0.7,0.1-1,0.4c-0.3,0.2-0.4,0.6-0.4,1.1v4h-1.3v-6.6h1.3v0.7
		c0.2-0.2,0.5-0.4,0.8-0.5c0.3-0.1,0.6-0.2,1-0.2c0.8,0,1.5,0.3,1.9,1c0.5-0.6,1.2-1,2.1-1c0.3,0,0.6,0.1,0.9,0.2s0.5,0.3,0.8,0.5
		c0.2,0.2,0.4,0.5,0.5,0.8c0.1,0.3,0.2,0.7,0.2,1v4.2H135.9z"/>
	<path class="st0" d="M147.3,103v-4c0-0.5-0.1-0.9-0.4-1.1s-0.6-0.4-1-0.4c-0.4,0-0.7,0.1-1,0.4c-0.3,0.2-0.4,0.6-0.4,1v4.1h-1.3v-4
		c0-0.5-0.1-0.9-0.4-1.1s-0.6-0.4-1-0.4c-0.4,0-0.7,0.1-1,0.4c-0.3,0.2-0.4,0.6-0.4,1.1v4h-1.3v-6.6h1.3v0.7
		c0.2-0.2,0.5-0.4,0.8-0.5c0.3-0.1,0.6-0.2,1-0.2c0.8,0,1.5,0.3,1.9,1c0.5-0.6,1.2-1,2.1-1c0.3,0,0.6,0.1,0.9,0.2s0.5,0.3,0.8,0.5
		c0.2,0.2,0.4,0.5,0.5,0.8c0.1,0.3,0.2,0.7,0.2,1v4.2H147.3z"/>
	<path class="st0" d="M150.6,95.1v-1.4h1.4v1.4H150.6z M150.7,103v-6.6h1.3v6.6H150.7z"/>
	<path class="st0" d="M156.2,103.1c-0.6,0-1.1-0.1-1.6-0.2c-0.4-0.1-0.8-0.4-1.2-0.7l0.9-0.9c0.2,0.3,0.5,0.4,0.9,0.5
		c0.3,0.1,0.7,0.2,1,0.2c0.4,0,0.8-0.1,1-0.2c0.3-0.2,0.4-0.4,0.4-0.7c0-0.2-0.1-0.4-0.2-0.6s-0.4-0.2-0.7-0.2l-1.1-0.1
		c-0.6-0.1-1.1-0.2-1.5-0.5c-0.3-0.3-0.5-0.7-0.5-1.3c0-0.6,0.2-1.1,0.7-1.5s1.1-0.5,1.8-0.5c0.5,0,1,0.1,1.4,0.2
		c0.4,0.1,0.8,0.3,1.1,0.6l-0.8,0.8c-0.2-0.2-0.4-0.3-0.7-0.4c-0.3-0.1-0.6-0.1-0.9-0.1c-0.4,0-0.7,0.1-0.9,0.2
		c-0.2,0.2-0.3,0.4-0.3,0.6c0,0.2,0.1,0.4,0.2,0.5c0.1,0.1,0.4,0.2,0.7,0.2l1,0.1c0.6,0.1,1.1,0.2,1.5,0.5s0.5,0.7,0.5,1.3
		c0,0.7-0.3,1.2-0.8,1.5S157.1,103.1,156.2,103.1z"/>
	<path class="st0" d="M162.7,103.1c-0.6,0-1.1-0.1-1.6-0.2c-0.4-0.1-0.8-0.4-1.2-0.7l0.9-0.9c0.2,0.3,0.5,0.4,0.9,0.5
		c0.3,0.1,0.7,0.2,1,0.2c0.4,0,0.8-0.1,1-0.2s0.4-0.4,0.4-0.7c0-0.2-0.1-0.4-0.2-0.6s-0.4-0.2-0.7-0.2l-1.1-0.1
		c-0.6-0.1-1.1-0.2-1.5-0.5c-0.3-0.3-0.5-0.7-0.5-1.3c0-0.6,0.2-1.1,0.7-1.5c0.5-0.4,1.1-0.5,1.8-0.5c0.5,0,1,0.1,1.4,0.2
		c0.4,0.1,0.8,0.3,1.1,0.6l-0.8,0.8c-0.2-0.2-0.4-0.3-0.7-0.4s-0.6-0.1-0.9-0.1c-0.4,0-0.7,0.1-0.9,0.2c-0.2,0.2-0.3,0.4-0.3,0.6
		c0,0.2,0.1,0.4,0.2,0.5c0.1,0.1,0.4,0.2,0.7,0.2l1,0.1c0.6,0.1,1.1,0.2,1.5,0.5c0.3,0.3,0.5,0.7,0.5,1.3c0,0.7-0.3,1.2-0.8,1.5
		S163.5,103.1,162.7,103.1z"/>
	<path class="st0" d="M167,95.1v-1.4h1.4v1.4H167z M167.1,103v-6.6h1.3v6.6H167.1z"/>
	<path class="st0" d="M174.9,102.3c-0.2,0.2-0.5,0.4-0.8,0.6s-0.7,0.2-1.1,0.2c-0.4,0-0.8-0.1-1.1-0.2s-0.6-0.3-0.9-0.6
		c-0.3-0.3-0.5-0.6-0.6-1c-0.1-0.4-0.2-0.9-0.2-1.5c0-0.6,0.1-1.1,0.2-1.5c0.1-0.4,0.3-0.8,0.6-1c0.3-0.3,0.6-0.5,0.9-0.6
		s0.7-0.2,1.1-0.2c0.4,0,0.8,0.1,1.1,0.2c0.3,0.1,0.6,0.3,0.9,0.6c0.3,0.3,0.5,0.6,0.6,1c0.1,0.4,0.2,0.9,0.2,1.5
		c0,0.6-0.1,1.1-0.2,1.5C175.4,101.6,175.2,102,174.9,102.3z M173.9,97.9c-0.3-0.3-0.6-0.4-1-0.4c-0.4,0-0.7,0.1-0.9,0.3
		c-0.2,0.2-0.4,0.5-0.4,0.8c-0.1,0.3-0.1,0.7-0.1,1.1c0,0.5,0,0.8,0.1,1.1s0.2,0.5,0.4,0.8c0.2,0.2,0.5,0.3,0.9,0.3
		c0.4,0,0.7-0.1,0.9-0.3s0.4-0.5,0.4-0.8c0.1-0.3,0.1-0.7,0.1-1.1c0-0.5,0-0.8-0.1-1.1S174.1,98.1,173.9,97.9z"/>
	<path class="st0" d="M181.5,103v-4c0-0.5-0.1-0.9-0.4-1.1c-0.2-0.2-0.6-0.4-1-0.4s-0.7,0.1-1,0.4c-0.3,0.2-0.4,0.6-0.4,1.1v4h-1.3
		v-6.6h1.3v0.7c0.5-0.5,1-0.7,1.8-0.7c0.3,0,0.6,0,0.9,0.1c0.3,0.1,0.5,0.3,0.7,0.5c0.2,0.2,0.4,0.5,0.5,0.8
		c0.1,0.3,0.1,0.7,0.1,1.1v4.2H181.5z"/>
	<path class="st0" d="M191.1,103.1c-1,0-1.7-0.3-2.2-0.8c-0.5-0.5-0.9-1-0.9-1.5s-0.1-1.3-0.1-2.4c0-1.1,0-1.9,0.1-2.4
		s0.4-1,0.9-1.5c0.5-0.5,1.3-0.8,2.2-0.8c0.9,0,1.6,0.2,2.2,0.7s1,1.2,1.1,2.1H193c-0.1-0.5-0.3-0.9-0.6-1.2s-0.7-0.4-1.2-0.4
		c-0.6,0-1,0.2-1.3,0.5c-0.3,0.3-0.5,0.7-0.5,1c-0.1,0.4-0.1,1-0.1,1.9c0,0.9,0,1.6,0.1,2s0.2,0.7,0.5,1c0.3,0.3,0.7,0.5,1.3,0.5
		c0.5,0,0.9-0.1,1.2-0.4c0.3-0.3,0.5-0.7,0.6-1.2h1.4c-0.2,0.9-0.5,1.6-1.1,2.1C192.7,102.8,192,103.1,191.1,103.1z"/>
	<path class="st0" d="M197.1,100.1c0,0.6,0.1,1,0.4,1.4c0.3,0.3,0.7,0.5,1.2,0.5c0.4,0,0.7,0,0.9-0.1s0.5-0.3,0.7-0.5l0.8,0.8
		c-0.4,0.4-0.7,0.6-1.1,0.8s-0.8,0.2-1.4,0.2c-0.9,0-1.6-0.3-2.2-0.8s-0.8-1.4-0.8-2.6c0-1.1,0.3-1.9,0.8-2.5s1.2-0.9,2-0.9
		c0.9,0,1.5,0.3,2,0.9c0.5,0.6,0.7,1.3,0.7,2.3v0.6H197.1z M199.9,98.3c-0.1-0.3-0.3-0.5-0.5-0.6c-0.2-0.2-0.5-0.2-0.8-0.2
		c-0.3,0-0.6,0.1-0.8,0.2c-0.2,0.1-0.4,0.4-0.5,0.6c-0.1,0.3-0.2,0.6-0.2,0.9h3C200.1,98.8,200,98.5,199.9,98.3z"/>
	<path class="st0" d="M206.8,97.9c-0.1-0.1-0.3-0.3-0.4-0.3c-0.2-0.1-0.3-0.1-0.5-0.1c-0.4,0-0.7,0.1-0.9,0.4
		c-0.3,0.3-0.4,0.6-0.4,1.1v4h-1.3v-6.6h1.3v0.7c0.2-0.2,0.4-0.4,0.7-0.6s0.7-0.2,1-0.2c0.3,0,0.6,0,0.9,0.1s0.5,0.3,0.7,0.5
		L206.8,97.9z"/>
	<path class="st0" d="M210.8,103c-0.6,0-1-0.2-1.3-0.5c-0.3-0.4-0.5-0.8-0.5-1.3v-3.6h-0.8v-1h0.8v-2h1.3v2h1.3v1h-1.3v3.6
		c0,0.5,0.2,0.8,0.7,0.8h0.5v1.1H210.8z"/>
	<path class="st0" d="M213.3,95.1v-1.4h1.4v1.4H213.3z M213.3,103v-6.6h1.3v6.6H213.3z"/>
	<path class="st0" d="M218.3,97.5v5.5H217v-5.5h-0.8v-1h0.8v-1c0-0.5,0.2-1,0.5-1.3c0.3-0.4,0.8-0.5,1.3-0.5h0.8v1.1H219
		c-0.5,0-0.7,0.3-0.7,0.8v0.9h1.3v1H218.3z"/>
	<path class="st0" d="M221,95.1v-1.4h1.4v1.4H221z M221,103v-6.6h1.3v6.6H221z"/>
	<path class="st0" d="M225.4,100.1c0,0.6,0.1,1,0.4,1.4s0.7,0.5,1.2,0.5c0.4,0,0.7,0,0.9-0.1c0.2-0.1,0.5-0.3,0.7-0.5l0.8,0.8
		c-0.4,0.4-0.7,0.6-1.1,0.8c-0.4,0.2-0.8,0.2-1.4,0.2c-0.9,0-1.6-0.3-2.2-0.8c-0.5-0.5-0.8-1.4-0.8-2.6c0-1.1,0.3-1.9,0.8-2.5
		c0.5-0.6,1.2-0.9,2-0.9c0.9,0,1.5,0.3,2,0.9c0.5,0.6,0.7,1.3,0.7,2.3v0.6H225.4z M228.2,98.3c-0.1-0.3-0.3-0.5-0.5-0.6
		c-0.2-0.2-0.5-0.2-0.8-0.2c-0.3,0-0.6,0.1-0.8,0.2c-0.2,0.1-0.4,0.4-0.5,0.6c-0.1,0.3-0.2,0.6-0.2,0.9h3
		C228.4,98.8,228.3,98.5,228.2,98.3z"/>
	<path class="st0" d="M235.2,103v-0.7c-0.2,0.3-0.5,0.5-0.8,0.6c-0.3,0.1-0.6,0.2-1,0.2c-0.3,0-0.6,0-0.9-0.1s-0.5-0.3-0.8-0.5
		c-0.2-0.2-0.4-0.6-0.5-1.1c-0.1-0.5-0.1-1-0.1-1.6c0-0.8,0.1-1.4,0.2-1.8c0.1-0.4,0.4-0.8,0.7-1.1c0.3-0.3,0.8-0.5,1.5-0.5
		c0.4,0,0.7,0.1,1,0.2c0.3,0.1,0.5,0.3,0.8,0.6v-3.3h1.3v9.3H235.2z M233.9,97.5c-0.6,0-0.9,0.2-1.1,0.6c-0.2,0.4-0.3,0.9-0.3,1.6
		c0,0.7,0.1,1.2,0.3,1.6c0.2,0.4,0.6,0.6,1.1,0.6c0.6,0,0.9-0.2,1.1-0.6c0.2-0.4,0.3-0.9,0.3-1.6c0-0.7-0.1-1.2-0.3-1.6
		C234.8,97.7,234.4,97.5,233.9,97.5z"/>
	<path class="st0" d="M83.9,121.5c-1,0-1.7-0.3-2.2-0.8c-0.5-0.5-0.9-1-0.9-1.5c-0.1-0.5-0.1-1.3-0.1-2.4c0-1.1,0-1.9,0.1-2.4
		c0.1-0.5,0.4-1,0.9-1.5c0.5-0.5,1.3-0.8,2.2-0.8c0.9,0,1.6,0.2,2.2,0.7s1,1.2,1.1,2.1h-1.4c-0.1-0.5-0.3-0.9-0.6-1.2
		c-0.3-0.3-0.7-0.4-1.2-0.4c-0.6,0-1,0.2-1.3,0.5s-0.5,0.7-0.5,1c-0.1,0.4-0.1,1-0.1,1.9c0,0.9,0,1.6,0.1,2s0.2,0.7,0.5,1
		c0.3,0.3,0.7,0.5,1.3,0.5c0.5,0,0.9-0.1,1.2-0.4s0.5-0.7,0.7-1.2h1.4c-0.2,0.9-0.5,1.6-1.1,2.1C85.5,121.2,84.8,121.5,83.9,121.5z"
		/>
	<path class="st0" d="M93.4,120.7c-0.2,0.2-0.5,0.4-0.8,0.6s-0.7,0.2-1.1,0.2c-0.4,0-0.8-0.1-1.1-0.2s-0.6-0.3-0.9-0.6
		c-0.3-0.3-0.5-0.6-0.6-1c-0.1-0.4-0.2-0.9-0.2-1.5c0-0.6,0.1-1.1,0.2-1.5c0.1-0.4,0.3-0.8,0.6-1c0.3-0.3,0.6-0.5,0.9-0.6
		s0.7-0.2,1.1-0.2c0.4,0,0.8,0.1,1.1,0.2c0.3,0.1,0.6,0.3,0.9,0.6c0.3,0.3,0.5,0.6,0.6,1c0.1,0.4,0.2,0.9,0.2,1.5
		c0,0.6-0.1,1.1-0.2,1.5C93.9,120,93.7,120.4,93.4,120.7z M92.4,116.3c-0.3-0.3-0.6-0.4-1-0.4c-0.4,0-0.7,0.1-0.9,0.3
		c-0.2,0.2-0.4,0.5-0.4,0.8c-0.1,0.3-0.1,0.7-0.1,1.1c0,0.5,0,0.8,0.1,1.1s0.2,0.5,0.4,0.8c0.2,0.2,0.5,0.3,0.9,0.3
		c0.4,0,0.7-0.1,0.9-0.3s0.4-0.5,0.4-0.8c0.1-0.3,0.1-0.7,0.1-1.1c0-0.5,0-0.8-0.1-1.1S92.5,116.5,92.4,116.3z"/>
	<path class="st0" d="M104,121.4v-4c0-0.5-0.1-0.9-0.4-1.1s-0.6-0.4-1-0.4c-0.4,0-0.7,0.1-1,0.4c-0.3,0.2-0.4,0.6-0.4,1v4.1h-1.3v-4
		c0-0.5-0.1-0.9-0.4-1.1s-0.6-0.4-1-0.4c-0.4,0-0.7,0.1-1,0.4c-0.3,0.2-0.4,0.6-0.4,1.1v4h-1.3v-6.6h1.3v0.7
		c0.2-0.2,0.5-0.4,0.8-0.5c0.3-0.1,0.6-0.2,1-0.2c0.8,0,1.5,0.3,1.9,1c0.5-0.6,1.2-1,2.1-1c0.3,0,0.6,0.1,0.9,0.2s0.5,0.3,0.8,0.5
		c0.2,0.2,0.4,0.5,0.5,0.8c0.1,0.3,0.2,0.7,0.2,1v4.2H104z"/>
	<path class="st0" d="M112,120.9c-0.4,0.4-0.9,0.6-1.6,0.6c-0.4,0-0.7-0.1-1-0.2c-0.3-0.1-0.5-0.3-0.8-0.6v3.4h-1.3v-9.3h1.3v0.7
		c0.2-0.3,0.5-0.5,0.8-0.6c0.3-0.1,0.6-0.2,1-0.2c0.3,0,0.6,0,0.9,0.1s0.5,0.3,0.8,0.5c0.2,0.2,0.4,0.6,0.5,1.1
		c0.1,0.5,0.2,1,0.2,1.6c0,0.6,0,1.2-0.1,1.7C112.5,120.2,112.3,120.6,112,120.9z M110,115.9c-0.6,0-0.9,0.2-1.1,0.6
		c-0.2,0.4-0.3,0.9-0.3,1.6c0,0.7,0.1,1.2,0.3,1.6c0.2,0.4,0.6,0.6,1.1,0.6c0.6,0,0.9-0.2,1.1-0.6s0.3-0.9,0.3-1.6
		c0-0.7-0.1-1.2-0.3-1.6C110.9,116.1,110.6,115.9,110,115.9z"/>
	<path class="st0" d="M118.1,116.3c-0.1-0.1-0.3-0.3-0.4-0.3c-0.2-0.1-0.3-0.1-0.5-0.1c-0.4,0-0.7,0.1-0.9,0.4
		c-0.3,0.3-0.4,0.6-0.4,1.1v4h-1.3v-6.6h1.3v0.7c0.2-0.2,0.4-0.4,0.7-0.6s0.7-0.2,1-0.2c0.3,0,0.6,0,0.9,0.1s0.5,0.3,0.7,0.5
		L118.1,116.3z"/>
	<path class="st0" d="M121.2,118.5c0,0.6,0.1,1,0.4,1.4c0.3,0.3,0.7,0.5,1.2,0.5c0.4,0,0.7,0,0.9-0.1s0.5-0.3,0.7-0.5l0.8,0.8
		c-0.4,0.4-0.7,0.6-1.1,0.8s-0.8,0.2-1.4,0.2c-0.9,0-1.6-0.3-2.2-0.8s-0.8-1.4-0.8-2.6c0-1.1,0.3-1.9,0.8-2.5s1.2-0.9,2-0.9
		c0.9,0,1.5,0.3,2,0.9c0.5,0.6,0.7,1.3,0.7,2.3v0.6H121.2z M124,116.7c-0.1-0.3-0.3-0.5-0.5-0.6c-0.2-0.2-0.5-0.2-0.8-0.2
		c-0.3,0-0.6,0.1-0.8,0.2c-0.2,0.1-0.4,0.4-0.5,0.6c-0.1,0.3-0.2,0.6-0.2,0.9h3C124.2,117.2,124.1,116.9,124,116.7z"/>
	<path class="st0" d="M131.2,121.4v-4.1c0-0.5-0.1-0.8-0.4-1.1s-0.6-0.4-1-0.4c-0.4,0-0.7,0.1-1,0.4c-0.3,0.2-0.4,0.6-0.4,1.1v4.1
		h-1.3v-9.3h1.3v3.3c0.5-0.5,1-0.7,1.7-0.7c0.7,0,1.3,0.2,1.7,0.7c0.4,0.4,0.6,1,0.6,1.8v4.3H131.2z"/>
	<path class="st0" d="M135.6,118.5c0,0.6,0.1,1,0.4,1.4s0.7,0.5,1.2,0.5c0.4,0,0.7,0,0.9-0.1c0.2-0.1,0.5-0.3,0.7-0.5l0.8,0.8
		c-0.4,0.4-0.7,0.6-1.1,0.8c-0.4,0.2-0.8,0.2-1.4,0.2c-0.9,0-1.6-0.3-2.2-0.8c-0.5-0.5-0.8-1.4-0.8-2.6c0-1.1,0.3-1.9,0.8-2.5
		c0.5-0.6,1.2-0.9,2-0.9c0.9,0,1.5,0.3,2,0.9c0.5,0.6,0.7,1.3,0.7,2.3v0.6H135.6z M138.4,116.7c-0.1-0.3-0.3-0.5-0.5-0.6
		c-0.2-0.2-0.5-0.2-0.8-0.2c-0.3,0-0.6,0.1-0.8,0.2c-0.2,0.1-0.4,0.4-0.5,0.6c-0.1,0.3-0.2,0.6-0.2,0.9h3
		C138.5,117.2,138.5,116.9,138.4,116.7z"/>
	<path class="st0" d="M145.6,121.4v-4c0-0.5-0.1-0.9-0.4-1.1c-0.2-0.2-0.6-0.4-1-0.4s-0.7,0.1-1,0.4c-0.3,0.2-0.4,0.6-0.4,1.1v4
		h-1.3v-6.6h1.3v0.7c0.5-0.5,1-0.7,1.8-0.7c0.3,0,0.6,0,0.9,0.1c0.3,0.1,0.5,0.3,0.7,0.5c0.2,0.2,0.4,0.5,0.5,0.8
		c0.1,0.3,0.1,0.7,0.1,1.1v4.2H145.6z"/>
	<path class="st0" d="M151.1,121.5c-0.6,0-1.1-0.1-1.6-0.2c-0.4-0.1-0.8-0.4-1.2-0.7l0.9-0.9c0.2,0.3,0.5,0.4,0.9,0.5
		c0.3,0.1,0.7,0.2,1,0.2c0.4,0,0.8-0.1,1-0.2s0.4-0.4,0.4-0.7c0-0.2-0.1-0.4-0.2-0.6s-0.4-0.2-0.7-0.2l-1.1-0.1
		c-0.6-0.1-1.1-0.2-1.5-0.5c-0.3-0.3-0.5-0.7-0.5-1.3c0-0.6,0.2-1.1,0.7-1.5c0.5-0.4,1.1-0.5,1.8-0.5c0.5,0,1,0.1,1.4,0.2
		c0.4,0.1,0.8,0.3,1.1,0.6l-0.8,0.8c-0.2-0.2-0.4-0.3-0.7-0.4s-0.6-0.1-0.9-0.1c-0.4,0-0.7,0.1-0.9,0.2c-0.2,0.2-0.3,0.4-0.3,0.6
		c0,0.2,0.1,0.4,0.2,0.5c0.1,0.1,0.4,0.2,0.7,0.2l1,0.1c0.6,0.1,1.1,0.2,1.5,0.5c0.3,0.3,0.5,0.7,0.5,1.3c0,0.7-0.3,1.2-0.8,1.5
		S151.9,121.5,151.1,121.5z"/>
	<path class="st0" d="M155.4,113.5v-1.4h1.4v1.4H155.4z M155.5,121.4v-6.6h1.3v6.6H155.5z"/>
	<path class="st0" d="M161.4,121.4h-1.1l-2.4-6.6l1.4,0l1.6,4.6l1.5-4.6l1.4,0L161.4,121.4z"/>
	<path class="st0" d="M166,118.5c0,0.6,0.1,1,0.4,1.4s0.7,0.5,1.2,0.5c0.4,0,0.7,0,0.9-0.1c0.2-0.1,0.5-0.3,0.7-0.5l0.8,0.8
		c-0.4,0.4-0.7,0.6-1.1,0.8c-0.4,0.2-0.8,0.2-1.4,0.2c-0.9,0-1.6-0.3-2.2-0.8c-0.5-0.5-0.8-1.4-0.8-2.6c0-1.1,0.3-1.9,0.8-2.5
		c0.5-0.6,1.2-0.9,2-0.9c0.9,0,1.5,0.3,2,0.9c0.5,0.6,0.7,1.3,0.7,2.3v0.6H166z M168.8,116.7c-0.1-0.3-0.3-0.5-0.5-0.6
		c-0.2-0.2-0.5-0.2-0.8-0.2c-0.3,0-0.6,0.1-0.8,0.2c-0.2,0.1-0.4,0.4-0.5,0.6c-0.1,0.3-0.2,0.6-0.2,0.9h3
		C169,117.2,168.9,116.9,168.8,116.7z"/>
	<path class="st0" d="M177.8,121.5c-0.7,0-1.3-0.1-1.8-0.3c-0.5-0.2-1-0.5-1.4-0.9l0.9-0.9c0.3,0.3,0.7,0.5,1.1,0.7
		c0.4,0.1,0.8,0.2,1.3,0.2c0.6,0,1.1-0.1,1.4-0.4c0.3-0.2,0.5-0.6,0.5-1c0-0.4-0.1-0.7-0.3-0.9s-0.3-0.3-0.5-0.3s-0.4-0.1-0.6-0.1
		l-1.1-0.2c-0.8-0.1-1.3-0.4-1.8-0.8s-0.6-1-0.6-1.7c0-0.8,0.3-1.5,0.8-2c0.6-0.5,1.3-0.7,2.3-0.7c1.2,0,2.1,0.4,2.9,1.1l-0.9,0.9
		c-0.3-0.3-0.6-0.4-0.9-0.6c-0.3-0.1-0.7-0.2-1.1-0.2c-0.5,0-0.9,0.1-1.2,0.4c-0.3,0.3-0.4,0.6-0.4,1c0,0.4,0.1,0.7,0.4,0.9
		c0.2,0.2,0.6,0.4,1,0.4l1.1,0.2c0.4,0.1,0.8,0.1,1,0.3s0.6,0.3,0.9,0.6c0.4,0.3,0.5,0.9,0.5,1.7c0,0.8-0.3,1.5-0.9,2
		C179.6,121.2,178.8,121.5,177.8,121.5z"/>
	<path class="st0" d="M184.8,121.4c-0.6,0-1-0.2-1.3-0.5c-0.3-0.4-0.5-0.8-0.5-1.3v-3.6h-0.8v-1h0.8v-2h1.3v2h1.3v1h-1.3v3.6
		c0,0.5,0.2,0.8,0.7,0.8h0.5v1.1H184.8z"/>
	<path class="st0" d="M190.9,116.3c-0.1-0.1-0.3-0.3-0.4-0.3c-0.2-0.1-0.3-0.1-0.5-0.1c-0.4,0-0.7,0.1-0.9,0.4
		c-0.3,0.3-0.4,0.6-0.4,1.1v4h-1.3v-6.6h1.3v0.7c0.2-0.2,0.4-0.4,0.7-0.6s0.7-0.2,1-0.2c0.3,0,0.6,0,0.9,0.1s0.5,0.3,0.7,0.5
		L190.9,116.3z"/>
	<path class="st0" d="M197.4,120.7c-0.2,0.2-0.5,0.4-0.8,0.6s-0.7,0.2-1.1,0.2c-0.4,0-0.8-0.1-1.1-0.2s-0.6-0.3-0.9-0.6
		c-0.3-0.3-0.5-0.6-0.6-1c-0.1-0.4-0.2-0.9-0.2-1.5c0-0.6,0.1-1.1,0.2-1.5c0.1-0.4,0.3-0.8,0.6-1c0.3-0.3,0.6-0.5,0.9-0.6
		s0.7-0.2,1.1-0.2c0.4,0,0.8,0.1,1.1,0.2c0.3,0.1,0.6,0.3,0.9,0.6c0.3,0.3,0.5,0.6,0.6,1c0.1,0.4,0.2,0.9,0.2,1.5
		c0,0.6-0.1,1.1-0.2,1.5C197.9,120,197.7,120.4,197.4,120.7z M196.4,116.3c-0.3-0.3-0.6-0.4-1-0.4c-0.4,0-0.7,0.1-0.9,0.3
		c-0.2,0.2-0.4,0.5-0.4,0.8c-0.1,0.3-0.1,0.7-0.1,1.1c0,0.5,0,0.8,0.1,1.1s0.2,0.5,0.4,0.8c0.2,0.2,0.5,0.3,0.9,0.3
		c0.4,0,0.7-0.1,0.9-0.3s0.4-0.5,0.4-0.8c0.1-0.3,0.1-0.7,0.1-1.1c0-0.5,0-0.8-0.1-1.1S196.6,116.5,196.4,116.3z"/>
	<path class="st0" d="M204.1,121.4l-1.8-3.1l-1,1.1l0,1.9H200v-9.3h1.3v5.7l2.6-3l1.6,0l-2.3,2.6l2.6,4L204.1,121.4z"/>
	<path class="st0" d="M208.1,118.5c0,0.6,0.1,1,0.4,1.4c0.3,0.3,0.7,0.5,1.2,0.5c0.4,0,0.7,0,0.9-0.1s0.5-0.3,0.7-0.5l0.8,0.8
		c-0.4,0.4-0.7,0.6-1.1,0.8s-0.8,0.2-1.4,0.2c-0.9,0-1.6-0.3-2.2-0.8s-0.8-1.4-0.8-2.6c0-1.1,0.3-1.9,0.8-2.5s1.2-0.9,2-0.9
		c0.9,0,1.5,0.3,2,0.9c0.5,0.6,0.7,1.3,0.7,2.3v0.6H208.1z M210.8,116.7c-0.1-0.3-0.3-0.5-0.5-0.6c-0.2-0.2-0.5-0.2-0.8-0.2
		c-0.3,0-0.6,0.1-0.8,0.2c-0.2,0.1-0.4,0.4-0.5,0.6c-0.1,0.3-0.2,0.6-0.2,0.9h3C211,117.2,211,116.9,210.8,116.7z"/>
	<path class="st0" d="M220.4,121.5c-1,0-1.7-0.3-2.2-0.8c-0.5-0.5-0.9-1-0.9-1.5s-0.1-1.3-0.1-2.4c0-1.1,0-1.9,0.1-2.4
		s0.4-1,0.9-1.5c0.5-0.5,1.3-0.8,2.2-0.8c0.9,0,1.6,0.2,2.2,0.7s1,1.2,1.1,2.1h-1.4c-0.1-0.5-0.3-0.9-0.6-1.2s-0.7-0.4-1.2-0.4
		c-0.6,0-1,0.2-1.3,0.5c-0.3,0.3-0.5,0.7-0.5,1c-0.1,0.4-0.1,1-0.1,1.9c0,0.9,0,1.6,0.1,2s0.2,0.7,0.5,1c0.3,0.3,0.7,0.5,1.3,0.5
		c0.5,0,0.9-0.1,1.2-0.4c0.3-0.3,0.5-0.7,0.6-1.2h1.4c-0.2,0.9-0.5,1.6-1.1,2.1C221.9,121.2,221.2,121.5,220.4,121.5z"/>
	<path class="st0" d="M226.4,118.5c0,0.6,0.1,1,0.4,1.4s0.7,0.5,1.2,0.5c0.4,0,0.7,0,0.9-0.1c0.2-0.1,0.5-0.3,0.7-0.5l0.8,0.8
		c-0.4,0.4-0.7,0.6-1.1,0.8c-0.4,0.2-0.8,0.2-1.4,0.2c-0.9,0-1.6-0.3-2.2-0.8c-0.5-0.5-0.8-1.4-0.8-2.6c0-1.1,0.3-1.9,0.8-2.5
		c0.5-0.6,1.2-0.9,2-0.9c0.9,0,1.5,0.3,2,0.9c0.5,0.6,0.7,1.3,0.7,2.3v0.6H226.4z M229.1,116.7c-0.1-0.3-0.3-0.5-0.5-0.6
		c-0.2-0.2-0.5-0.2-0.8-0.2c-0.3,0-0.6,0.1-0.8,0.2c-0.2,0.1-0.4,0.4-0.5,0.6c-0.1,0.3-0.2,0.6-0.2,0.9h3
		C229.3,117.2,229.2,116.9,229.1,116.7z"/>
	<path class="st0" d="M236.4,121.4v-4c0-0.5-0.1-0.9-0.4-1.1c-0.2-0.2-0.6-0.4-1-0.4s-0.7,0.1-1,0.4c-0.3,0.2-0.4,0.6-0.4,1.1v4
		h-1.3v-6.6h1.3v0.7c0.5-0.5,1-0.7,1.8-0.7c0.3,0,0.6,0,0.9,0.1c0.3,0.1,0.5,0.3,0.7,0.5c0.2,0.2,0.4,0.5,0.5,0.8
		c0.1,0.3,0.1,0.7,0.1,1.1v4.2H236.4z"/>
	<path class="st0" d="M241.7,121.4c-0.6,0-1-0.2-1.3-0.5c-0.3-0.4-0.5-0.8-0.5-1.3v-3.6h-0.8v-1h0.8v-2h1.3v2h1.3v1h-1.3v3.6
		c0,0.5,0.2,0.8,0.7,0.8h0.5v1.1H241.7z"/>
	<path class="st0" d="M245.2,118.5c0,0.6,0.1,1,0.4,1.4c0.3,0.3,0.7,0.5,1.2,0.5c0.4,0,0.7,0,0.9-0.1c0.2-0.1,0.5-0.3,0.7-0.5
		l0.8,0.8c-0.4,0.4-0.7,0.6-1.1,0.8s-0.8,0.2-1.4,0.2c-0.9,0-1.6-0.3-2.2-0.8c-0.5-0.5-0.8-1.4-0.8-2.6c0-1.1,0.3-1.9,0.8-2.5
		s1.2-0.9,2-0.9c0.9,0,1.5,0.3,2,0.9c0.5,0.6,0.7,1.3,0.7,2.3v0.6H245.2z M248,116.7c-0.1-0.3-0.3-0.5-0.5-0.6
		c-0.2-0.2-0.5-0.2-0.8-0.2c-0.3,0-0.6,0.1-0.8,0.2s-0.4,0.4-0.5,0.6c-0.1,0.3-0.2,0.6-0.2,0.9h3C248.1,117.2,248.1,116.9,248,116.7
		z"/>
	<path class="st0" d="M254.8,116.3c-0.1-0.1-0.3-0.3-0.4-0.3c-0.2-0.1-0.3-0.1-0.5-0.1c-0.4,0-0.7,0.1-0.9,0.4
		c-0.3,0.3-0.4,0.6-0.4,1.1v4h-1.3v-6.6h1.3v0.7c0.2-0.2,0.4-0.4,0.7-0.6s0.7-0.2,1-0.2c0.3,0,0.6,0,0.9,0.1s0.5,0.3,0.7,0.5
		L254.8,116.3z"/>
</g>
<line class="st1" x1="80.3" y1="83.9" x2="255.3" y2="83.9"/>
</svg>
